# xmcd
#
# Track frame offsets: 
#        150
#        14800
#        34961
#        50945
#        68015
#        86994
#        103136
#        120044
#        139302
#        149810
#        174848
#        194802
#        221448
#        231556
#        249679
#        264178
#        286734
#        318638
#
# Disc length: 4537 seconds
#
# Revision: 0
# Processed by: cddbd v1.5.2PL0 Copyright (c) Steve Scherf et al.
# Submitted via: ExactAudioCopy v0.90b4
#
DISCID=2211b712
DTITLE=Various Artist - Essential Blue Note [CD1]
DYEAR=2009
DGENRE=Jazz
TTITLE0=Norah Jones - Come Away with Me
TTITLE1=Patricia Barber - I Get a Kick Out of You
TTITLE2=Count Basie and His Orchestra - Rock-a-Bye Basie
TTITLE3=Betty Carter - There Is No Greater Love
TTITLE4=Holly Cole - I Can See Clearly Now
TTITLE5=Chick Corea - My One and Only Love
TTITLE6=Elaine Elias - They Can't Take That Away from Me
TTITLE7=Al Green - You've Got the Love I Need
TTITLE8=Chet Baker - My Funny Valentine
TTITLE9=Grant Green - Canteloupe Woman
TTITLE10=Stacey Kent - What a Wonderful World
TTITLE11=Stanley Turrentine - Walk On By
TTITLE12=Billie Holiday - Blue Moon
TTITLE13=Saint Germain - Rose Rouge
TTITLE14=Miles Davis - Jeru
TTITLE15=Marlena Shaw - Feel Like Making Love
TTITLE16=Herbie Hancock - Watermelon Man
TTITLE17=Bobby McFerrin - Don't Worry, Be Happy
EXTD=
EXTT0=
EXTT1=
EXTT2=
EXTT3=
EXTT4=
EXTT5=
EXTT6=
EXTT7=
EXTT8=
EXTT9=
EXTT10=
EXTT11=
EXTT12=
EXTT13=
EXTT14=
EXTT15=
EXTT16=
EXTT17=
PLAYORDER=
